<?xml version="1.0" encoding="UTF-8"?>
<svg width="118px" height="147px" viewBox="0 0 118 147" version="1.1" xmlns="http://www.w3.org/2000/svg" xmlns:xlink="http://www.w3.org/1999/xlink">
    <title>Group 50</title>
    <defs>
        <polygon id="path-1" points="0 0 116.583536 0 116.583536 146.110262 0 146.110262"/>
        <polygon id="path-3" points="0 0 116.583536 0 116.583536 146.110262 0 146.110262"/>
        <polygon id="path-5" points="-1.42108547e-14 0 68.305836 0 68.305836 146.1105 -1.42108547e-14 146.1105"/>
    </defs>
    <g id="Page-1" stroke="none" stroke-width="1" fill="none" fill-rule="evenodd">
        <g id="Desktop" transform="translate(-82.000000, -230.000000)">
            <g id="Group-50" transform="translate(82.000000, 230.000000)">
                <g id="Group-3">
                    <mask id="mask-2" fill="white">
                        <use xlink:href="#path-1"/>
                    </mask>
                    <g id="Clip-2"/>
                    <path d="M116.5187,132.458 L116.5187,58.249 C116.5187,26.079 90.4397,0 58.2697,0 L58.2697,0 C26.0987,0 0.0197,26.079 0.0197,58.249 L0.0197,132.131 C0.0197,132.131 -0.0253,133.278 0.0197,134.911 L0.0197,135.669 L0.0467,135.669 C0.1947,139.176 0.7817,144.22 2.8677,145.663 C2.9277,145.736 3.0107,145.797 3.1427,145.834 C3.1547,145.838 3.1647,145.838 3.1767,145.841 C3.4697,145.984 3.7867,146.069 4.1357,146.067 C4.1677,146.067 4.1947,146.055 4.2257,146.054 C9.8227,146.79 11.1397,139.946 17.5387,139.946 C24.3317,139.946 24.3317,145.946 31.1247,145.946 C37.9127,145.946 37.9127,139.946 44.7017,139.946 C51.4917,139.946 51.4917,145.946 58.2827,145.946 C65.0707,145.946 65.0707,139.946 71.8587,139.946 C78.6457,139.946 78.6457,145.946 85.4317,145.946 C92.2207,145.946 92.2207,139.946 99.0097,139.946 C105.3997,139.946 106.7207,146.784 112.3047,146.056 C112.3317,146.057 112.3547,146.067 112.3827,146.067 C117.0647,146.067 116.6357,134.55 116.5187,132.458" id="Fill-1" fill="#CECECE" mask="url(#mask-2)"/>
                </g>
                <g id="Group-6">
                    <mask id="mask-4" fill="white">
                        <use xlink:href="#path-3"/>
                    </mask>
                    <g id="Clip-5"/>
                    <path d="M116.5187,132.458 L116.5187,58.249 C116.5187,26.079 90.4397,0 58.2697,0 L58.2697,0 C48.5717,0 39.4347,2.383 31.3917,6.575 C31.3847,6.579 31.3767,6.583 31.3697,6.587 C30.6607,6.957 29.9617,7.342 29.2697,7.74 C29.2097,7.775 29.1487,7.809 29.0887,7.844 C28.4237,8.23 27.7667,8.628 27.1187,9.039 C27.0437,9.087 26.9697,9.135 26.8957,9.182 C26.2517,9.595 25.6157,10.017 24.9897,10.454 C24.9327,10.494 24.8757,10.535 24.8187,10.575 C21.5167,12.897 18.4667,15.549 15.7177,18.49 C15.6427,18.57 15.5657,18.647 15.4917,18.727 C15.0577,19.196 14.6377,19.677 14.2197,20.16 C14.0577,20.347 13.8937,20.531 13.7347,20.72 C13.3607,21.163 12.9967,21.615 12.6357,22.069 C12.4447,22.31 12.2547,22.55 12.0677,22.793 C11.7337,23.227 11.4077,23.666 11.0857,24.109 C10.8857,24.386 10.6877,24.664 10.4927,24.944 C10.1917,25.374 9.8947,25.807 9.6057,26.246 C9.4037,26.552 9.2077,26.863 9.0117,27.173 C8.7407,27.602 8.4697,28.031 8.2097,28.467 C8.0097,28.803 7.8187,29.145 7.6247,29.485 C7.3827,29.91 7.1387,30.332 6.9067,30.764 C6.7027,31.144 6.5117,31.532 6.3167,31.917 C6.1107,32.321 5.8987,32.721 5.7027,33.131 C5.3327,33.903 4.9797,34.684 4.6437,35.474 C4.5017,35.808 4.3747,36.149 4.2387,36.486 C4.0367,36.986 3.8327,37.485 3.6447,37.992 C3.5077,38.36 3.3847,38.734 3.2547,39.106 C3.0857,39.592 2.9167,40.078 2.7597,40.569 C2.6387,40.951 2.5267,41.337 2.4137,41.721 C2.2677,42.214 2.1247,42.707 1.9917,43.204 C1.8887,43.592 1.7917,43.983 1.6967,44.374 C1.5727,44.879 1.4557,45.386 1.3447,45.896 C1.2607,46.286 1.1797,46.677 1.1037,47.07 C1.0017,47.594 0.9087,48.121 0.8217,48.65 C0.7577,49.035 0.6927,49.42 0.6367,49.808 C0.5557,50.364 0.4887,50.923 0.4237,51.483 C0.3807,51.85 0.3337,52.216 0.2987,52.585 C0.2387,53.209 0.1957,53.839 0.1557,54.469 C0.1357,54.779 0.1067,55.087 0.0917,55.399 C0.0467,56.343 0.0197,57.293 0.0197,58.249 L0.0197,132.131 C0.0197,132.131 -0.0253,133.278 0.0197,134.911 L0.0197,135.669 L0.0467,135.669 C0.0607,136.001 0.0807,136.35 0.1037,136.705 C0.1067,136.754 0.1097,136.801 0.1127,136.851 C0.1377,137.22 0.1677,137.597 0.2047,137.98 C0.2047,137.989 0.2057,137.998 0.2067,138.007 C0.2837,138.812 0.3897,139.634 0.5317,140.435 C0.5317,140.435 0.5317,140.436 0.5317,140.436 L0.5317,140.436 C0.9377,142.726 1.6427,144.816 2.8677,145.663 C2.9277,145.736 3.0107,145.797 3.1427,145.834 C3.1547,145.838 3.1647,145.838 3.1767,145.841 C3.4697,145.984 3.7867,146.069 4.1357,146.067 C4.1677,146.067 4.1947,146.055 4.2257,146.054 C5.6657,146.243 6.8207,145.926 7.8547,145.357 C8.0427,145.254 8.2267,145.141 8.4067,145.022 C8.5437,144.932 8.6787,144.835 8.8117,144.737 C8.8767,144.69 8.9417,144.643 9.0067,144.595 C9.1527,144.483 9.2987,144.37 9.4427,144.252 C9.4497,144.247 9.4557,144.241 9.4617,144.236 C10.5147,143.373 11.5247,142.364 12.7067,141.538 C12.7407,141.514 12.7767,141.491 12.8107,141.468 C13.0147,141.328 13.2247,141.197 13.4397,141.071 C13.4987,141.036 13.5577,141.001 13.6177,140.968 C13.8677,140.829 14.1247,140.698 14.3927,140.583 C14.4017,140.579 14.4087,140.575 14.4177,140.571 C14.6907,140.455 14.9767,140.356 15.2727,140.269 C15.3517,140.245 15.4347,140.227 15.5157,140.206 C15.7437,140.147 15.9797,140.098 16.2227,140.058 C16.3167,140.043 16.4097,140.027 16.5067,140.015 C16.8367,139.974 17.1777,139.946 17.5387,139.946 C17.9307,139.946 18.2957,139.97 18.6447,140.008 C18.8287,140.028 18.9977,140.061 19.1707,140.091 C19.3137,140.115 19.4597,140.138 19.5957,140.168 C19.8237,140.22 20.0407,140.28 20.2507,140.347 C20.3057,140.365 20.3607,140.381 20.4147,140.399 C20.6597,140.483 20.8967,140.575 21.1217,140.677 C24.6387,142.272 25.8017,145.946 31.1247,145.946 C32.5927,145.946 33.7327,145.655 34.7027,145.215 C34.7037,145.215 34.7037,145.215 34.7037,145.215 C36.8137,144.258 38.0837,142.559 39.9017,141.344 C39.9077,141.341 39.9127,141.337 39.9187,141.333 C40.3907,141.019 40.9037,140.74 41.4767,140.514 C41.5217,140.497 41.5707,140.483 41.6167,140.466 C41.8417,140.382 42.0767,140.308 42.3227,140.243 C42.4137,140.219 42.5077,140.197 42.6017,140.176 C42.8257,140.125 43.0617,140.083 43.3047,140.049 C43.4047,140.035 43.5027,140.018 43.6067,140.007 C43.9537,139.97 44.3137,139.946 44.7017,139.946 C45.0937,139.946 45.4577,139.97 45.8067,140.008 C45.9907,140.028 46.1597,140.061 46.3327,140.091 C46.4757,140.115 46.6207,140.137 46.7567,140.168 C46.9847,140.219 47.2017,140.28 47.4117,140.347 C47.4657,140.364 47.5217,140.381 47.5757,140.399 C47.8197,140.483 48.0567,140.574 48.2807,140.676 C51.7987,142.27 52.9607,145.946 58.2827,145.946 C59.7497,145.946 60.8877,145.656 61.8577,145.217 C61.8577,145.217 61.8577,145.217 61.8577,145.217 C63.9697,144.26 65.2407,142.559 67.0597,141.344 C67.0657,141.341 67.0707,141.337 67.0757,141.333 C67.5487,141.019 68.0607,140.74 68.6347,140.514 C68.6797,140.497 68.7277,140.483 68.7727,140.466 C68.9987,140.382 69.2347,140.308 69.4807,140.243 C69.5717,140.219 69.6657,140.197 69.7597,140.176 C69.9837,140.125 70.2187,140.083 70.4617,140.049 C70.5627,140.035 70.6607,140.018 70.7647,140.007 C71.1107,139.97 71.4707,139.946 71.8587,139.946 C72.2507,139.946 72.6147,139.97 72.9627,140.008 C73.1457,140.028 73.3157,140.061 73.4877,140.091 C73.6307,140.115 73.7767,140.137 73.9127,140.168 C74.1387,140.219 74.3557,140.279 74.5647,140.346 C74.6197,140.364 74.6757,140.38 74.7297,140.398 C74.9737,140.482 75.2097,140.573 75.4337,140.675 C78.9517,142.268 80.1117,145.946 85.4317,145.946 C87.2487,145.946 88.5717,145.51 89.6767,144.88 C89.7447,144.841 89.8107,144.8 89.8777,144.76 C90.1177,144.614 90.3497,144.462 90.5717,144.301 C90.6437,144.248 90.7177,144.197 90.7887,144.144 C90.9857,143.993 91.1777,143.839 91.3667,143.681 C92.8387,142.458 94.1177,141.066 96.1967,140.38 C96.9987,140.115 97.9087,139.946 99.0097,139.946 C105.3997,139.946 106.7207,146.784 112.3047,146.056 C112.3317,146.057 112.3547,146.067 112.3827,146.067 C117.0647,146.067 116.6357,134.55 116.5187,132.458" id="Fill-4" fill="#FFFFFF" mask="url(#mask-4)"/>
                </g>
                <path d="M23.8963,68.6158 C23.8963,73.1728 20.2023,76.8678 15.6443,76.8678 C11.0873,76.8678 7.3933,73.1728 7.3933,68.6158 C7.3933,64.0588 11.0873,60.3638 15.6443,60.3638 C20.2023,60.3638 23.8963,64.0588 23.8963,68.6158" id="Fill-7" fill="#0C0C0C"/>
                <path d="M66.5432,68.6158 C66.5432,73.1728 62.8492,76.8678 58.2912,76.8678 C53.7342,76.8678 50.0402,73.1728 50.0402,68.6158 C50.0402,64.0588 53.7342,60.3638 58.2912,60.3638 C62.8492,60.3638 66.5432,64.0588 66.5432,68.6158" id="Fill-9" fill="#0C0C0C"/>
                <path d="M31.2522,76.046 C34.2512,76.401 39.1062,76.766 43.7402,76.206 C45.3442,76.013 46.4462,77.76 45.5712,79.119 C44.2722,81.135 41.9022,83.346 37.6762,83.733 C32.8612,84.173 30.4552,81.192 29.2982,78.721 C28.6682,77.376 29.7772,75.872 31.2522,76.046" id="Fill-11" fill="#000000"/>
                <path d="M79.2975,139.6328 C77.8305,139.6328 76.6915,139.9228 75.7215,140.3618 C75.7215,140.3618 75.7215,140.3618 75.7215,140.3618 C79.2395,141.9558 80.4005,145.6328 85.7205,145.6328 C87.5365,145.6328 88.8605,145.1968 89.9645,144.5678 C89.6545,144.7438 89.3315,144.9078 88.9805,145.0478 C85.9985,143.4078 84.0475,139.6328 79.2975,139.6328" id="Fill-13" fill="#FFFFFF"/>
                <path d="M55.1697,145.4164 C56.0397,145.7414 57.0457,145.9454 58.2827,145.9454 C59.7497,145.9454 60.8877,145.6554 61.8577,145.2164 C61.8577,145.2164 61.8577,145.2164 61.8577,145.2164 C63.9697,144.2604 65.2407,142.5594 67.0597,141.3444 C67.0657,141.3404 67.0707,141.3374 67.0757,141.3334 C67.3867,141.1264 67.7237,140.9424 68.0757,140.7714 C67.1417,140.3734 66.0557,140.1104 64.6717,140.1104 C60.0197,140.1104 58.0497,143.7264 55.1697,145.4164" id="Fill-15" fill="#CECECE"/>
                <path d="M27.881,145.3712 C28.779,145.7252 29.827,145.9462 31.125,145.9462 C32.593,145.9462 33.733,145.6552 34.703,145.2152 C34.703,145.2152 34.703,145.2152 34.703,145.2152 C35.425,144.8882 36.045,144.4702 36.626,144.0182 C37.502,143.3082 38.297,142.5262 39.209,141.8472 C39.433,141.6732 39.662,141.5042 39.902,141.3442 C39.907,141.3412 39.913,141.3372 39.918,141.3332 C40.202,141.1452 40.506,140.9742 40.823,140.8152 C39.866,140.3912 38.746,140.1102 37.309,140.1102 C32.697,140.1102 30.721,143.6632 27.881,145.3712" id="Fill-17" fill="#CECECE"/>
                <path d="M2.0555,144.8258 C2.2975,145.1688 2.5665,145.4538 2.8675,145.6628 C2.9275,145.7358 3.0105,145.7978 3.1425,145.8348 C3.1545,145.8378 3.1645,145.8378 3.1765,145.8408 C3.4695,145.9838 3.7865,146.0688 4.1365,146.0668 C4.1675,146.0668 4.1945,146.0558 4.2255,146.0538 C4.4395,146.0818 4.6355,146.0778 4.8375,146.0838 C5.8435,146.0278 6.6985,145.8388 7.4415,145.5508 C7.5795,145.4858 7.7215,145.4308 7.8545,145.3568 C8.0425,145.2538 8.2265,145.1418 8.4065,145.0228 C8.5445,144.9318 8.6785,144.8348 8.8125,144.7368 C8.8765,144.6898 8.9425,144.6428 9.0065,144.5948 C9.1525,144.4828 9.2985,144.3698 9.4425,144.2518 C9.4495,144.2468 9.4555,144.2418 9.4615,144.2358 C10.5145,143.3728 11.5245,142.3638 12.7065,141.5378 C12.7405,141.5138 12.7765,141.4918 12.8105,141.4678 C13.0145,141.3288 13.2245,141.1968 13.4395,141.0708 C13.4995,141.0358 13.5575,141.0008 13.6185,140.9678 C13.7535,140.8928 13.8975,140.8288 14.0385,140.7588 C13.1115,140.3688 12.0355,140.1098 10.6665,140.1098 C6.5075,140.1098 4.4935,143.0048 2.0555,144.8258" id="Fill-19" fill="#CECECE"/>
                <path d="M82.2799,145.4898 C81.9589,145.3568 81.6559,145.2078 81.3689,145.0448 C81.6549,145.2078 81.9589,145.3568 82.2799,145.4898" id="Fill-21" fill="#CECECE"/>
                <path d="M82.3528,145.5253 C82.3568,145.5233 82.3598,145.5203 82.3638,145.5183 C82.3368,145.5083 82.3068,145.5003 82.2798,145.4893 C82.3058,145.5003 82.3268,145.5153 82.3528,145.5253" id="Fill-23" fill="#CECECE"/>
                <path d="M34.5283,5.2746 C33.6223,5.6886 32.7243,6.1166 31.8443,6.5756 C32.7243,6.1166 33.6223,5.6896 34.5283,5.2746" id="Fill-25" fill="#CECECE"/>
                <path d="M47.1279,1.1806 C46.6249,1.2826 46.1239,1.3916 45.6259,1.5066 C46.1239,1.3916 46.6249,1.2826 47.1279,1.1806" id="Fill-27" fill="#CECECE"/>
                <path d="M45.6254,1.5065 C45.1844,1.6085 44.7414,1.7045 44.3044,1.8155 C44.7414,1.7045 45.1844,1.6075 45.6254,1.5065" id="Fill-29" fill="#CECECE"/>
                <path d="M48.6466,0.8869 C48.6746,0.8819 48.7026,0.8789 48.7306,0.8739 C48.7276,0.8739 48.7246,0.8729 48.7216,0.8719 C48.6966,0.8769 48.6716,0.8829 48.6466,0.8869" id="Fill-31" fill="#CECECE"/>
                <g id="Group-35" transform="translate(48.730100, 0.000000)">
                    <mask id="mask-6" fill="white">
                        <use xlink:href="#path-5"/>
                    </mask>
                    <g id="Clip-34"/>
                    <path d="M68.241,132.458 L68.241,58.249 C68.241,26.079 42.162,0 9.992,0 L9.992,0 C6.582,0 3.248,0.31 -1.42108547e-14,0.874 C27.399,5.621 48.241,29.493 48.241,58.249 L48.241,132.458 C48.267,132.927 48.309,131.871 48.305,133.052 C48.296,135.808 47.389,138.44 43.325,140.11 C43.319,140.113 43.312,140.11 43.305,140.11 C36.984,140.57 36.609,143.875 33.634,145.519 C34.532,145.879 35.577,146.110544 36.883,146.110544 C42.203,146.110544 43.363,142.433 46.881,140.839 C46.881,140.839 48.946,139.633 51.682,140.009 C55.991,141.225 56.974,146.714 64.027,146.056 C64.054,146.057 64.077,146.067 64.105,146.067 C68.787,146.067 68.358,134.55 68.241,132.458" id="Fill-33" fill="#CECECE" mask="url(#mask-6)"/>
                </g>
                <path d="M44.3043,1.816 C43.4633,2.03 42.6323,2.267 41.8073,2.517 C42.6323,2.267 43.4643,2.031 44.3043,1.816" id="Fill-36" fill="#CECECE"/>
                <path d="M48.6466,0.8869 C48.1376,0.9759 47.6326,1.0779 47.1276,1.1809 C47.6326,1.0789 48.1376,0.9759 48.6466,0.8869" id="Fill-38" fill="#CECECE"/>
                <path d="M35.2736,4.9389 C35.0236,5.0489 34.7756,5.1609 34.5286,5.2749 C34.7756,5.1609 35.0236,5.0489 35.2736,4.9389" id="Fill-40" fill="#CECECE"/>
                <path d="M37.9274,3.8398 C37.0304,4.1828 36.1484,4.5538 35.2734,4.9388 C36.1484,4.5528 37.0314,4.1828 37.9274,3.8398" id="Fill-42" fill="#CECECE"/>
                <path d="M40.6996,2.8695 C39.9956,3.0985 39.2986,3.3405 38.6066,3.5945 C39.2976,3.3395 39.9966,3.0985 40.6996,2.8695" id="Fill-44" fill="#CECECE"/>
                <path d="M38.6067,3.5945 C38.3807,3.6775 38.1517,3.7535 37.9277,3.8395 C38.1517,3.7535 38.3807,3.6775 38.6067,3.5945" id="Fill-46" fill="#CECECE"/>
                <path d="M41.8072,2.5173 C41.4362,2.6303 41.0682,2.7493 40.6992,2.8693 C41.0682,2.7493 41.4362,2.6303 41.8072,2.5173" id="Fill-48" fill="#CECECE"/>
            </g>
        </g>
    </g>
</svg>