<?xml version="1.0" encoding="UTF-8"?>
<svg width="204px" height="205px" viewBox="0 0 204 205" version="1.1" xmlns="http://www.w3.org/2000/svg" xmlns:xlink="http://www.w3.org/1999/xlink">
    <title>Group 45</title>
    <g id="Page-1" stroke="none" stroke-width="1" fill="none" fill-rule="evenodd" stroke-linejoin="round">
        <g id="Desktop" transform="translate(-550.000000, -274.000000)" stroke="#979797" stroke-width="3">
            <g id="Group-45" transform="translate(551.000000, 276.000000)">
                <line x1="0.5" y1="0.336" x2="103.441" y2="168.702" id="Stroke-1" stroke-linecap="round"/>
                <path d="M0.5382,186.443 C23.5172,154.465 54.6042,143.514 93.8002,153.589" id="Stroke-3"/>
                <path d="M0.8004,149.9685 C19.2794,124.5435 44.2794,115.8365 75.8004,123.8475" id="Stroke-5"/>
                <path d="M0.8004,120.9685 C15.0914,95.5435 37.8344,93.2565 62.2104,101.2675" id="Stroke-7"/>
                <path d="M0.8004,99.9685 C11.8884,74.5435 28.9124,69.7275 47.8244,77.7385" id="Stroke-9"/>
                <path d="M0.8004,70.9685 C7.0334,51.0825 17.7004,50.3755 32.8004,52.8475" id="Stroke-11"/>
                <path d="M0.5,49.1393 C0.5,37.6113 12.624,27.4623 23.3,37.8343" id="Stroke-13"/>
                <line x1="1.3271" y1="0.6218" x2="176.2801" y2="91.9218" id="Stroke-15" stroke-linecap="round"/>
                <path d="M97.2121,160.127 C100.4391,120.882 121.4461,95.484 160.2321,83.932" id="Stroke-17"/>
                <path d="M78.651,128.7272 C81.396,97.4162 98.341,77.0772 129.485,67.7092" id="Stroke-19"/>
                <path d="M63.7149,103.8694 C62.8699,74.7164 74.9569,57.2954 99.9769,51.6074" id="Stroke-21"/>
                <path d="M47.8246,77.7382 C44.2336,50.2342 57.6816,43.1762 78.0186,40.3022" id="Stroke-23"/>
                <path d="M32.8004,52.8474 C35.8964,34.1044 39.8814,30.2704 54.3964,28.3164" id="Stroke-25"/>
                <path d="M23.3004,37.8343 C19.5294,21.6523 23.1294,14.9383 34.1004,17.6923" id="Stroke-27"/>
                <path d="M165.7527,86.4276 C148.3057,51.1256 151.4667,30.2136 178.7637,0.3356" id="Stroke-29"/>
                <path d="M129.4852,67.7091 C115.7122,39.4571 121.4302,24.5701 143.3022,0.5001" id="Stroke-31"/>
                <path d="M99.9773,51.607 C84.2373,27.053 96.2743,18.098 114.7913,0.336" id="Stroke-33"/>
                <path d="M78.0183,40.302 C69.2453,20.401 71.6253,13.438 87.5773,0.5" id="Stroke-35"/>
                <path d="M54.3966,28.3162 C50.6436,12.2092 50.7746,9.4872 62.2106,0.3362" id="Stroke-37"/>
                <path d="M37.9586,19.738 C26.3926,7.809 34.9786,3.626 45.8006,0.336" id="Stroke-39"/>
                <line x1="1.1988" y1="0.5" x2="200.7318" y2="0.5" id="Stroke-41" stroke-linecap="round"/>
                <line x1="0.5" y1="0.336" x2="0.5" y2="201.002" id="Stroke-43" stroke-linecap="round"/>
            </g>
        </g>
    </g>
</svg>