<svg width="169" height="83" viewBox="0 0 169 83" fill="none" xmlns="http://www.w3.org/2000/svg">
<path d="M10.6879 20.1081C11.8356 13.3541 17.4748 8.27455 24.3116 7.83638L135.489 0.710935C142.059 0.289884 148.115 4.2652 150.341 10.4603L162.738 44.9529C165.945 53.8779 160.035 63.4712 150.621 64.62L19.6807 80.5984C9.86488 81.7962 1.665 73.2024 3.32172 63.4536L10.6879 20.1081Z" fill="#A7DE93"/>
<path d="M49.1922 40.91C49.1922 41.795 48.5922 42.29 47.5722 42.29H45.4572V39.47H47.5272C48.5472 39.47 49.1922 40.01 49.1922 40.91ZM48.9372 36.545C48.9372 37.4 48.3672 37.85 47.3772 37.85H45.4572V35.225H47.3772C48.3672 35.225 48.9372 35.705 48.9372 36.545ZM51.3222 41.165C51.3222 39.935 50.4822 38.84 49.2972 38.63C50.3172 38.3 51.0822 37.505 51.0822 36.23C51.0822 34.67 49.8672 33.53 47.6772 33.53H43.3572V44H47.8722C50.0472 44 51.3222 42.83 51.3222 41.165ZM61.0209 39.845C61.0209 37.22 59.1459 35.555 56.7459 35.555C54.3459 35.555 52.4709 37.22 52.4709 39.845C52.4709 42.455 54.2859 44.135 56.6859 44.135C59.1009 44.135 61.0209 42.455 61.0209 39.845ZM54.6009 39.845C54.6009 38.18 55.6059 37.385 56.7159 37.385C57.8259 37.385 58.8609 38.18 58.8609 39.845C58.8609 41.495 57.7959 42.305 56.6859 42.305C55.5609 42.305 54.6009 41.495 54.6009 39.845ZM70.5863 39.845C70.5863 37.22 68.7113 35.555 66.3113 35.555C63.9113 35.555 62.0363 37.22 62.0363 39.845C62.0363 42.455 63.8513 44.135 66.2513 44.135C68.6663 44.135 70.5863 42.455 70.5863 39.845ZM64.1663 39.845C64.1663 38.18 65.1713 37.385 66.2813 37.385C67.3913 37.385 68.4263 38.18 68.4263 39.845C68.4263 41.495 67.3613 42.305 66.2513 42.305C65.1263 42.305 64.1663 41.495 64.1663 39.845ZM72.1268 44H74.2268V40.46L77.0468 44H79.7768L76.0868 39.86L79.7468 35.69H77.0168L74.2268 39.215V32.9H72.1268V44ZM91.3157 33.515V40.715L86.5607 33.515H84.4607V44H86.5607V36.815L91.3157 44H93.4157V33.515H91.3157ZM103.516 39.845C103.516 37.22 101.641 35.555 99.241 35.555C96.841 35.555 94.966 37.22 94.966 39.845C94.966 42.455 96.781 44.135 99.181 44.135C101.596 44.135 103.516 42.455 103.516 39.845ZM97.096 39.845C97.096 38.18 98.101 37.385 99.211 37.385C100.321 37.385 101.356 38.18 101.356 39.845C101.356 41.495 100.291 42.305 99.181 42.305C98.056 42.305 97.096 41.495 97.096 39.845ZM106.571 44H108.851L110.366 38.195L111.881 44H114.146L116.576 35.69H114.566L113.096 42.005L111.536 35.69H109.316L107.726 42.02L106.256 35.69H104.126L106.571 44Z" fill="#303056"/>
</svg>