<svg width="95" height="61" viewBox="0 0 95 61" fill="none" xmlns="http://www.w3.org/2000/svg">
<path d="M5.57174 18.1343C6.46867 11.2339 12.0581 5.89402 18.9923 5.31298L70.1679 1.0248C77.2581 0.430687 83.7651 4.97339 85.651 11.834L90.6263 29.933C92.96 38.4222 87.3996 47.0561 78.7053 48.4432L19.5322 57.8838C9.78108 59.4395 1.2767 51.1779 2.54949 41.3858L5.57174 18.1343Z" fill="#FF5B79"/>
<path d="M41.0178 33.9999H38.9178L34.1628 26.8149V33.9999H32.0628V23.5149H34.1628L38.9178 30.7149V23.5149H41.0178V33.9999ZM50.8181 29.6649C50.8181 29.9649 50.7981 30.2349 50.7581 30.4749H44.6831C44.7331 31.0749 44.9431 31.5449 45.3131 31.8849C45.6831 32.2249 46.1381 32.3949 46.6781 32.3949C47.4581 32.3949 48.0131 32.0599 48.3431 31.3899H50.6081C50.3681 32.1899 49.9081 32.8499 49.2281 33.3699C48.5481 33.8799 47.7131 34.1349 46.7231 34.1349C45.9231 34.1349 45.2031 33.9599 44.5631 33.6099C43.9331 33.2499 43.4381 32.7449 43.0781 32.0949C42.7281 31.4449 42.5531 30.6949 42.5531 29.8449C42.5531 28.9849 42.7281 28.2299 43.0781 27.5799C43.4281 26.9299 43.9181 26.4299 44.5481 26.0799C45.1781 25.7299 45.9031 25.5549 46.7231 25.5549C47.5131 25.5549 48.2181 25.7249 48.8381 26.0649C49.4681 26.4049 49.9531 26.8899 50.2931 27.5199C50.6431 28.1399 50.8181 28.8549 50.8181 29.6649ZM48.6431 29.0649C48.6331 28.5249 48.4381 28.0949 48.0581 27.7749C47.6781 27.4449 47.2131 27.2799 46.6631 27.2799C46.1431 27.2799 45.7031 27.4399 45.3431 27.7599C44.9931 28.0699 44.7781 28.5049 44.6981 29.0649H48.6431ZM63.8709 25.6899L61.4409 33.9999H59.1759L57.6609 28.1949L56.1459 33.9999H53.8659L51.4209 25.6899H53.5509L55.0209 32.0199L56.6109 25.6899H58.8309L60.3909 32.0049L61.8609 25.6899H63.8709Z" fill="white"/>
</svg>