<svg width="144" height="71" viewBox="0 0 144 71" fill="none" xmlns="http://www.w3.org/2000/svg">
<path d="M9.41707 17.1153C10.3911 11.3838 15.1766 7.07327 20.9783 6.70143L115.325 0.654698C120.9 0.29739 126.039 3.67089 127.928 8.92814L138.448 38.1989C141.17 45.7728 136.155 53.9138 128.166 54.8886L17.0485 68.4481C8.71866 69.4646 1.76017 62.1718 3.16608 53.8988L9.41707 17.1153Z" fill="#FF5B79"/>
<path d="M42.0923 34.3416C42.0923 35.0926 41.5831 35.5127 40.7175 35.5127H38.9227V33.1196H40.6793C41.5449 33.1196 42.0923 33.5779 42.0923 34.3416ZM41.8759 30.6374C41.8759 31.363 41.3922 31.7449 40.5521 31.7449H38.9227V29.5173H40.5521C41.3922 29.5173 41.8759 29.9246 41.8759 30.6374ZM43.8998 34.558C43.8998 33.5142 43.187 32.585 42.1814 32.4068C43.047 32.1268 43.6962 31.4521 43.6962 30.3701C43.6962 29.0463 42.6651 28.0789 40.8066 28.0789H37.1406V36.9638H40.9721C42.8178 36.9638 43.8998 35.971 43.8998 34.558ZM52.1302 33.4379C52.1302 31.2103 50.5391 29.7973 48.5024 29.7973C46.4657 29.7973 44.8746 31.2103 44.8746 33.4379C44.8746 35.6527 46.4148 37.0784 48.4515 37.0784C50.5009 37.0784 52.1302 35.6527 52.1302 33.4379ZM46.6821 33.4379C46.6821 32.0249 47.535 31.3503 48.477 31.3503C49.4189 31.3503 50.2972 32.0249 50.2972 33.4379C50.2972 34.8381 49.3935 35.5254 48.4515 35.5254C47.4968 35.5254 46.6821 34.8381 46.6821 33.4379ZM60.2476 33.4379C60.2476 31.2103 58.6564 29.7973 56.6197 29.7973C54.5831 29.7973 52.9919 31.2103 52.9919 33.4379C52.9919 35.6527 54.5322 37.0784 56.5688 37.0784C58.6182 37.0784 60.2476 35.6527 60.2476 33.4379ZM54.7995 33.4379C54.7995 32.0249 55.6523 31.3503 56.5943 31.3503C57.5362 31.3503 58.4146 32.0249 58.4146 33.4379C58.4146 34.8381 57.5108 35.5254 56.5688 35.5254C55.6141 35.5254 54.7995 34.8381 54.7995 33.4379ZM61.5548 36.9638H63.3369V33.9598L65.7299 36.9638H68.0467L64.9153 33.4506L68.0212 29.9119H65.7045L63.3369 32.9032V27.5443H61.5548V36.9638ZM77.8388 28.0661V34.1761L73.8036 28.0661H72.0215V36.9638H73.8036V30.8666L77.8388 36.9638H79.6208V28.0661H77.8388ZM88.1921 33.4379C88.1921 31.2103 86.6009 29.7973 84.5642 29.7973C82.5276 29.7973 80.9364 31.2103 80.9364 33.4379C80.9364 35.6527 82.4767 37.0784 84.5133 37.0784C86.5627 37.0784 88.1921 35.6527 88.1921 33.4379ZM82.744 33.4379C82.744 32.0249 83.5968 31.3503 84.5388 31.3503C85.4807 31.3503 86.3591 32.0249 86.3591 33.4379C86.3591 34.8381 85.4553 35.5254 84.5133 35.5254C83.5586 35.5254 82.744 34.8381 82.744 33.4379ZM90.7849 36.9638H92.7198L94.0054 32.0376L95.2911 36.9638H97.2132L99.2753 29.9119H97.5696L96.3221 35.2709L94.9983 29.9119H93.1144L91.7651 35.2836L90.5176 29.9119H88.7101L90.7849 36.9638Z" fill="white"/>
</svg>